<svg xmlns="http://www.w3.org/2000/svg" viewBox="0 0 512 512" fill="currentColor">
  <!-- Main heel pad -->
  <path d="M256 510C185 510 128 460 128 400C128 350 165 310 200 280C220 263 235 248 245 228C250 218 260 218 265 228C275 248 290 263 310 280C345 310 382 350 382 400C382 460 325 510 256 510Z"/>
  <!-- Outer left toe -->
  <ellipse cx="118" cy="215" rx="48" ry="68" transform="rotate(-20 118 215)"/>
  <!-- Inner left toe -->
  <ellipse cx="195" cy="165" rx="42" ry="62" transform="rotate(-8 195 165)"/>
  <!-- Inner right toe -->
  <ellipse cx="317" cy="165" rx="42" ry="62" transform="rotate(8 317 165)"/>
  <!-- Outer right toe -->
  <ellipse cx="394" cy="215" rx="48" ry="68" transform="rotate(20 394 215)"/>
</svg>
