<svg xmlns="http://www.w3.org/2000/svg" viewBox="0 0 400 470" fill="currentColor">
  <!-- Main pad -->
  <path d="M200 470c-55 0-105-25-130-65c-20-32-22-72-5-105c15-28 35-48 52-65c25-25 42-42 42-70c0-5 4-9 9-9h64c5 0 9 4 9 9c0 28 17 45 42 70c17 17 37 37 52 65c17 33 15 73-5 105c-25 40-75 65-130 65z"/>
  <!-- Top left toe with claw -->
  <path d="M95 185c-30 0-52-35-52-80c0-38 18-75 42-88c8-4 17-2 23 5c18 22 28 52 28 82c0 45-18 81-41 81z"/>
  <path d="M68 22c-4-6-3-12 0-15c1 1 2 2 3 4c6 8 8 18 5 22c-2 3-5 0-8-11z"/>
  <!-- Top right toe with claw -->
  <path d="M305 185c-23 0-41-36-41-81c0-30 10-60 28-82c6-7 15-9 23-5c24 13 42 50 42 88c0 45-22 80-52 80z"/>
  <path d="M332 22c4-6 3-12 0-15c-1 1-2 2-3 4c-6 8-8 18-5 22c2 3 5 0 8-11z"/>
  <!-- Inner left toe with claw -->
  <path d="M155 165c-25 0-45-32-45-72c0-33 16-65 38-78c7-4 15-2 20 4c16 20 24 46 24 74c0 40-15 72-37 72z"/>
  <path d="M133 20c-3-5-2-10 0-13c1 1 2 2 2 3c5 7 7 16 4 19c-2 2-4 0-6-9z"/>
  <!-- Inner right toe with claw -->
  <path d="M245 165c-22 0-37-32-37-72c0-28 8-54 24-74c5-6 13-8 20-4c22 13 38 45 38 78c0 40-20 72-45 72z"/>
  <path d="M267 20c3-5 2-10 0-13c-1 1-2 2-2 3c-5 7-7 16-4 19c2 2 4 0 6-9z"/>
</svg>
